#!OML:ASF I:\Actors\actors\Patient Classification 1\Patient 1\Session 1\Subject1.ASF
:FULLY-SPECIFIED
:DEGREES
270
root 0.735847 17.4693 9.24949 7.71043 -0.633334 -8.13307
lowerback -1.24642 1.17755 4.55919
upperback -7.61125 1.89608 3.04556
thorax -7.22099 0.765717 0.549795
lowerneck -11.9865 0.820569 3.21849
upperneck 30.9467 1.12799 -2.30017
head 12.198 0.598977 -1.27218
rclavicle -6.21202e-017 5.12367e-014
rhumerus -22.9012 6.42411 -91.9484
rradius 50.3933
rwrist 57.8396
rhand -23.814 -45.8162
rfingers 7.12502
rthumb 2.65703 -75.7794
lclavicle -6.21202e-017 5.12367e-014
lhumerus -35.3478 -7.11087 100.634
lradius 95.1092
lwrist 80.5153
lhand -20.9742 11.1145
lfingers 7.12502
lthumb 5.39923 41.0257
rfemur -5.97637 19.3057 24.4449
rtibia 9.41259
rfoot -14.0444 -20.9071
rtoes 1.35565
lfemur 5.95668 -41.4341 -13.928
ltibia -3.81359
lfoot -18.913 49.3909
ltoes 7.94492
271
root 0.739763 17.4707 9.24 7.73964 -0.90061 -8.13731
lowerback -1.30903 1.29155 4.59549
upperback -7.63644 2.04462 3.01293
thorax -7.20655 0.835773 0.489702
lowerneck -12.0025 0.833008 3.31107
upperneck 31.0434 1.1254 -2.30499
head 12.2413 0.608779 -1.29151
rclavicle -7.24943e-015 6.36111e-015
rhumerus -21.5684 5.44381 -91.7239
rradius 47.305
rwrist 54.9833
rhand -21.3287 -44.2842
rfingers 7.12502
rthumb 5.05695 -74.2039
lclavicle -7.24943e-015 6.36111e-015
lhumerus -35.4219 -7.31174 100.714
lradius 95.0461
lwrist 80.5819
lhand -20.6003 10.7995
lfingers 7.12502
lthumb 5.76025 40.7012
rfemur -6.00985 19.4532 24.399
rtibia 9.32594
rfoot -13.9668 -20.8084
rtoes 1.21098
lfemur 5.99713 -41.3319 -13.9589
ltibia -3.86169
lfoot -19.2327 49.4723
ltoes 8.49297
272
root 0.743159 17.4728 9.23274 7.74815 -1.07875 -8.17637
lowerback -1.35684 1.36461 4.65961
upperback -7.66021 2.14113 2.99885
thorax -7.20023 0.878859 0.435978
lowerneck -12.066 0.830293 3.33652
upperneck 31.1801 1.09775 -2.25178
head 12.3093 0.606782 -1.28104
rclavicle 8.39244e-015 2.90226e-014
rhumerus -20.6727 4.90305 -91.4975
rradius 45.2038
rwrist 53.1036
rhand -20.6001 -44.729
rfingers 7.12502
rthumb 5.76042 -74.6307
lclavicle 8.39244e-015 2.90226e-014
lhumerus -35.4747 -7.50732 100.771
lradius 94.9521
lwrist 80.6022
lhand -20.4944 10.4987
lfingers 7.12502
lthumb 5.86246 40.3976
rfemur -5.96559 19.6333 24.4205
rtibia 9.16576
rfoot -13.8578 -20.7999
rtoes 1.29172
lfemur 5.99466 -41.1401 -13.912
ltibia -3.88759
lfoot -19.263 49.4423
ltoes 8.66619
273
root 0.746052 17.4744 9.22724 7.73329 -1.11812 -8.18784
lowerback -1.3411 1.41973 4.74237
upperback -7.68669 2.21716 2.94922
thorax -7.23185 0.9086 0.334178
lowerneck -12.2245 0.847288 3.4436
upperneck 31.3184 1.07902 -2.21187
head 12.3995 0.616663 -1.28856
rclavicle 2.61402e-014 -3.62782e-015
rhumerus -20.3126 4.85146 -91.2252
rradius 44.3385
rwrist 52.4047
rhand -19.3289 -44.1905
rfingers 7.12502
rthumb 6.98763 -74.0551
lclavicle 2.61402e-014 -3.62782e-015
lhumerus -35.4788 -7.80206 100.853
lradius 94.8188
lwrist 80.4919
lhand -20.6367 10.4794
lfingers 7.12502
lthumb 5.72516 40.382
rfemur -5.87889 19.7025 24.4262
rtibia 8.98074
rfoot -13.7385 -20.8379
rtoes 1.32353
lfemur 5.96152 -41.0626 -13.8972
ltibia -3.85235
lfoot -19.1372 49.4147
ltoes 8.5779
274
root 0.746965 17.4748 9.22389 7.75047 -1.03574 -8.21296
lowerback -1.35151 1.44233 4.80753
upperback -7.71924 2.2485 2.91291
thorax -7.257 0.91796 0.258755
lowerneck -12.3021 0.868143 3.6025
upperneck 31.2742 1.0791 -2.25418
head 12.3994 0.629828 -1.33184
rclavicle 9.00122e-015 -5.7076e-014
rhumerus -20.4612 5.68205 -91.0278
rradius 44.6794
rwrist 51.2438
rhand -18.1732 -43.167
rfingers 7.12502
rthumb 8.10321 -72.9916
lclavicle 9.00122e-015 -5.7076e-014
lhumerus -35.4202 -8.11067 100.95
lradius 94.6513
lwrist 80.3882
lhand -20.8604 10.6758
lfingers 7.12502
lthumb 5.50913 40.5842
rfemur -5.78726 19.7811 24.4621
rtibia 8.78265
rfoot -13.7125 -20.9858
rtoes 1.44921
lfemur 5.82531 -40.9444 -13.7615
ltibia -3.82472
lfoot -18.9995 49.2264
ltoes 8.52084
275
root 0.747734 17.4754 9.22273 7.78992 -0.81072 -8.17681
lowerback -1.40074 1.42009 4.79273
upperback -7.76203 2.21529 2.87543
thorax -7.27461 0.900594 0.230336
lowerneck -12.2901 0.83453 3.58783
upperneck 31.107 1.00768 -2.17583
head 12.3256 0.605439 -1.3075
rclavicle -2.38542e-015 2.58917e-014
rhumerus -21.1 7.04046 -90.884
rradius 46.3978
rwrist 49.9306
rhand -15.6347 -42.1577
rfingers 7.12502
rthumb 10.5525 -71.8728
lclavicle -2.38542e-015 2.58917e-014
lhumerus -35.3528 -8.41212 101.061
lradius 94.4786
lwrist 80.264
lhand -21.2393 10.8769
lfingers 7.12502
lthumb 5.14334 40.7945
rfemur -5.66572 19.8995 24.4331
rtibia 8.51902
rfoot -13.7206 -21.2916
rtoes 1.72451
lfemur 5.58278 -40.838 -13.6104
ltibia -3.79915
lfoot -18.7092 48.947
ltoes 8.30516
276
root 0.748428 17.4775 9.22326 7.80047 -0.480512 -8.1199
lowerback -1.43786 1.36646 4.75947
upperback -7.79793 2.14038 2.84124
thorax -7.29361 0.863976 0.21719
lowerneck -12.3332 0.781151 3.40475
upperneck 30.9856 0.896401 -1.92919
head 12.2793 0.565095 -1.19603
rclavicle -3.61617e-015 -3.75206e-015
rhumerus -22.2285 8.69928 -90.8603
rradius 49.3587
rwrist 47.7838
rhand -12.9624 -41.6145
rfingers 7.12502
rthumb 13.1294 -71.1811
lclavicle -3.61617e-015 -3.75206e-015
lhumerus -35.3042 -8.69382 101.2
lradius 94.3369
lwrist 80.0865
lhand -21.7473 10.9246
lfingers 7.12502
lthumb 4.65275 40.8535
rfemur -5.49934 19.9607 24.3941
rtibia 8.22748
rfoot -13.6801 -21.6576
rtoes 1.86682
lfemur 5.36994 -40.8033 -13.4976
ltibia -3.80684
lfoot -18.1434 48.6953
ltoes 7.63365
277
root 0.747753 17.4783 9.22717 7.79972 -0.0701745 -8.13695
lowerback -1.52203 1.27557 4.75551
upperback -7.81595 2.01558 2.8693
thorax -7.26932 0.80416 0.256338
lowerneck -12.3641 0.787163 3.30142
upperneck 30.8441 0.900774 -1.83474
head 12.2276 0.566376 -1.14012
rclavicle -9.83208e-015 -2.63328e-014
rhumerus -23.8099 10.8619 -91.1219
rradius 53.0294
rwrist 42.7774
rhand -13.4319 -41.1856
rfingers 7.12502
rthumb 12.6768 -70.7809
lclavicle -9.83208e-015 -2.63328e-014
lhumerus -35.2819 -8.89658 101.396
lradius 94.2965
lwrist 79.9888
lhand -22.0858 10.8842
lfingers 7.12502
lthumb 4.3259 40.82
rfemur -5.28725 20.0224 24.4769
rtibia 7.9349
rfoot -13.6942 -22.1012
rtoes 1.89031
lfemur 5.14924 -40.6467 -13.2646
ltibia -3.8274
lfoot -17.4641 48.2647
ltoes 6.79962
278
root 0.747514 17.4766 9.23474 7.78029 0.481552 -8.16179
lowerback -1.63631 1.14441 4.76814
upperback -7.83521 1.83585 2.90749
thorax -7.23041 0.716779 0.299671
lowerneck -12.3498 0.821501 3.38149
upperneck 30.6914 0.96775 -1.9518
head 12.1659 0.590293 -1.18751
rclavicle 6.20115e-015 2.27236e-014
rhumerus -25.7001 12.3785 -91.3242
rradius 57.8648
rwrist 39.4582
rhand -10.8279 -40.9718
rfingers 7.12502
rthumb 15.1862 -70.3945
lclavicle 6.20115e-015 2.27236e-014
lhumerus -35.3002 -9.10059 101.625
lradius 94.336
lwrist 79.9156
lhand -22.164 11.0254
lfingers 7.12502
lthumb 4.25037 40.9628
rfemur -4.98932 20.1049 24.604
rtibia 7.60568
rfoot -13.8655 -22.6621
rtoes 2.21341
lfemur 4.89688 -40.5414 -13.0171
ltibia -3.79329
lfoot -16.8033 47.7453
ltoes 6.03661
279
root 0.746268 17.4746 9.2435 7.74949 1.14261 -8.2057
lowerback -1.72144 0.998935 4.81501
upperback -7.86521 1.6397 2.92669
thorax -7.21924 0.617787 0.303906
lowerneck -12.3633 0.819574 3.37621
upperneck 30.5804 0.957965 -1.9253
head 12.1236 0.588503 -1.17673
rclavicle -7.23079e-015 -5.34234e-016
rhumerus -27.8646 13.3963 -91.5689
rradius 63.2566
rwrist 36.9806
rhand -12.1257 -40.3747
rfingers 7.12502
rthumb 13.9359 -69.8876
lclavicle -7.23079e-015 -5.34234e-016
lhumerus -35.34 -9.36587 101.863
lradius 94.4135
lwrist 79.8413
lhand -22.022 11.0874
lfingers 7.12502
lthumb 4.3875 41.0219
rfemur -4.67969 20.1345 24.7678
rtibia 7.30541
rfoot -14.1054 -23.2616
rtoes 2.91875
lfemur 4.62244 -40.5096 -12.7218
ltibia -3.77224
lfoot -16.0552 47.203
ltoes 5.13229
280
root 0.741528 17.4736 9.25324 7.72753 1.82455 -8.29961
lowerback -1.80169 0.845613 4.865
upperback -7.88675 1.4347 2.97509
thorax -7.20306 0.515513 0.336987
lowerneck -12.3734 0.794767 3.19699
upperneck 30.4233 0.911688 -1.74677
head 12.0593 0.569254 -1.08311
rclavicle 6.24463e-015 -4.11733e-014
rhumerus -30.2767 14.5822 -92.1475
rradius 68.7803
rwrist 34.1114
rhand -14.297 -40.4855
rfingers 7.12502
rthumb 11.8427 -70.1306
lclavicle 6.24463e-015 -4.11733e-014
lhumerus -35.3553 -9.62635 102.113
lradius 94.5516
lwrist 79.8127
lhand -21.8352 10.9217
lfingers 7.12502
lthumb 4.56789 40.8524
rfemur -4.4107 20.1268 25.0025
rtibia 7.06367
rfoot -14.2892 -23.9002
rtoes 3.38313
lfemur 4.32611 -40.366 -12.303
ltibia -3.81478
lfoot -15.239 46.5316
ltoes 4.12263
281
root 0.735553 17.4739 9.26477 7.69062 2.48623 -8.29369
lowerback -1.89448 0.672154 4.77897
upperback -7.88779 1.19786 3.03394
thorax -7.15952 0.407168 0.457479
lowerneck -12.3282 0.799782 3.06416
upperneck 30.1931 0.924673 -1.65315
head 11.9569 0.570901 -1.02112
rclavicle 1.17594e-014 2.59414e-014
rhumerus -32.766 15.9131 -93.0844
rradius 74.232
rwrist 31.5121
rhand -17.6453 -40.8502
rfingers 7.12502
rthumb 8.61266 -70.6545
lclavicle 1.17594e-014 2.59414e-014
lhumerus -35.3503 -9.79692 102.346
lradius 94.735
lwrist 79.8238
lhand -21.6733 10.8081
lfingers 7.12502
lthumb 4.72422 40.7354
rfemur -4.14126 20.0601 25.1264
rtibia 6.85129
rfoot -14.4466 -24.49
rtoes 3.59392
lfemur 4.09323 -40.295 -12.0574
ltibia -3.85487
lfoot -14.5018 45.9322
ltoes 3.19461
282
root 0.732102 17.4739 9.27697 7.65031 3.2433 -8.18721
lowerback -2.00718 0.438128 4.63383
upperback -7.88918 0.876502 3.08063
thorax -7.10558 0.260243 0.601111
lowerneck -12.2502 0.853729 2.99268
upperneck 29.9561 1.01168 -1.61702
head 11.8484 0.605787 -0.981497
rclavicle 1.88597e-014 -3.42158e-014
rhumerus -35.083 16.8224 -93.9995
rradius 79.609
rwrist 31.1354
rhand -18.4506 -40.4902
rfingers 7.12502
rthumb 7.83543 -70.325
lclavicle 1.88597e-014 -3.42158e-014
lhumerus -35.397 -9.82636 102.525
lradius 95.0019
lwrist 79.976
lhand -20.802 10.8161
lfingers 7.12502
lthumb 5.56555 40.723
rfemur -3.89063 19.8455 25.1154
rtibia 6.67141
rfoot -14.6788 -24.9878
rtoes 3.97445
lfemur 3.79609 -40.3231 -11.9386
ltibia -3.78886
lfoot -13.8422 45.3252
ltoes 2.28117
283
root 0.732911 17.4718 9.28625 7.61236 4.12263 -8.13089
lowerback -2.1003 0.152756 4.6436
upperback -7.90461 0.491553 3.11661
thorax -7.07797 0.0708386 0.649447
lowerneck -12.1417 0.916915 2.90858
upperneck 29.7261 1.11503 -1.5786
head 11.7373 0.647163 -0.937096
rclavicle -8.61607e-015 5.66536e-015
rhumerus -37.101 17.2683 -94.7934
rradius 84.8338
rwrist 32.5365
rhand -16.5559 -40.5555
rfingers 7.12502
rthumb 9.66385 -70.3138
lclavicle -8.61607e-015 5.66536e-015
lhumerus -35.4687 -9.7538 102.65
lradius 95.2814
lwrist 80.2769
lhand -19.6518 11.0649
lfingers 7.12502
lthumb 6.67597 40.9396
rfemur -3.67763 19.6004 25.1396
rtibia 6.51259
rfoot -14.9749 -25.5295
rtoes 4.5923
lfemur 3.32481 -40.2442 -11.6725
ltibia -3.61582
lfoot -13.117 44.5019
ltoes 1.08147
